<svg id="visual" viewBox="0 0 900 600" width="900" height="600" xmlns="http://www.w3.org/2000/svg" xmlns:xlink="http://www.w3.org/1999/xlink" version="1.1"><path d="M0 351L16.7 362.8C33.3 374.7 66.7 398.3 100 382.3C133.3 366.3 166.7 310.7 200 300.2C233.3 289.7 266.7 324.3 300 359C333.3 393.7 366.7 428.3 400 433.8C433.3 439.3 466.7 415.7 500 385.7C533.3 355.7 566.7 319.3 600 318.2C633.3 317 666.7 351 700 377C733.3 403 766.7 421 800 406.5C833.3 392 866.7 345 883.3 321.5L900 298L900 601L883.3 601C866.7 601 833.3 601 800 601C766.7 601 733.3 601 700 601C666.7 601 633.3 601 600 601C566.7 601 533.3 601 500 601C466.7 601 433.3 601 400 601C366.7 601 333.3 601 300 601C266.7 601 233.3 601 200 601C166.7 601 133.3 601 100 601C66.7 601 33.3 601 16.7 601L0 601Z" fill="#CBE3EF" stroke-linecap="round" stroke-linejoin="miter"></path></svg>