<svg id="visual" viewBox="0 0 900 600" width="900" height="600" xmlns="http://www.w3.org/2000/svg" xmlns:xlink="http://www.w3.org/1999/xlink" version="1.1"><path d="M0 485L13.7 482.7C27.3 480.3 54.7 475.7 82 469C109.3 462.3 136.7 453.7 163.8 450.3C191 447 218 449 245.2 461.2C272.3 473.3 299.7 495.7 327 498.8C354.3 502 381.7 486 409 485.8C436.3 485.7 463.7 501.3 491 498.7C518.3 496 545.7 475 573 462.2C600.3 449.3 627.7 444.7 654.8 444.3C682 444 709 448 736.2 462.2C763.3 476.3 790.7 500.7 818 505.8C845.3 511 872.7 497 886.3 490L900 483L900 601L886.3 601C872.7 601 845.3 601 818 601C790.7 601 763.3 601 736.2 601C709 601 682 601 654.8 601C627.7 601 600.3 601 573 601C545.7 601 518.3 601 491 601C463.7 601 436.3 601 409 601C381.7 601 354.3 601 327 601C299.7 601 272.3 601 245.2 601C218 601 191 601 163.8 601C136.7 601 109.3 601 82 601C54.7 601 27.3 601 13.7 601L0 601Z" fill="#CBE3EF" stroke-linecap="round" stroke-linejoin="miter"></path></svg>