<svg id="visual" viewBox="0 0 900 600" width="900" height="600" xmlns="http://www.w3.org/2000/svg" xmlns:xlink="http://www.w3.org/1999/xlink" version="1.1"><path d="M0 333L13.7 301.7C27.3 270.3 54.7 207.7 82 185.3C109.3 163 136.7 181 163.8 210.8C191 240.7 218 282.3 245.2 302.7C272.3 323 299.7 322 327 308.8C354.3 295.7 381.7 270.3 409 251.7C436.3 233 463.7 221 491 216.8C518.3 212.7 545.7 216.3 573 218.8C600.3 221.3 627.7 222.7 654.8 229.3C682 236 709 248 736.2 264.2C763.3 280.3 790.7 300.7 818 297.5C845.3 294.3 872.7 267.7 886.3 254.3L900 241L900 0L886.3 0C872.7 0 845.3 0 818 0C790.7 0 763.3 0 736.2 0C709 0 682 0 654.8 0C627.7 0 600.3 0 573 0C545.7 0 518.3 0 491 0C463.7 0 436.3 0 409 0C381.7 0 354.3 0 327 0C299.7 0 272.3 0 245.2 0C218 0 191 0 163.8 0C136.7 0 109.3 0 82 0C54.7 0 27.3 0 13.7 0L0 0Z" fill="#CBE3EF" stroke-linecap="round" stroke-linejoin="miter"></path></svg>