<svg id="visual" viewBox="0 0 900 600" width="900" height="600" xmlns="http://www.w3.org/2000/svg" xmlns:xlink="http://www.w3.org/1999/xlink" version="1.1"><path d="M0 444L16.7 451.3C33.3 458.7 66.7 473.3 100 463.3C133.3 453.3 166.7 418.7 200 412.2C233.3 405.7 266.7 427.3 300 449C333.3 470.7 366.7 492.3 400 495.8C433.3 499.3 466.7 484.7 500 466C533.3 447.3 566.7 424.7 600 423.8C633.3 423 666.7 444 700 460.2C733.3 476.3 766.7 487.7 800 478.7C833.3 469.7 866.7 440.3 883.3 425.7L900 411L900 601L883.3 601C866.7 601 833.3 601 800 601C766.7 601 733.3 601 700 601C666.7 601 633.3 601 600 601C566.7 601 533.3 601 500 601C466.7 601 433.3 601 400 601C366.7 601 333.3 601 300 601C266.7 601 233.3 601 200 601C166.7 601 133.3 601 100 601C66.7 601 33.3 601 16.7 601L0 601Z" fill="#CBE3EF" stroke-linecap="round" stroke-linejoin="miter"></path></svg>